<?xml version="1.0" standalone="no"?>
<!DOCTYPE svg PUBLIC "-//W3C//DTD SVG 20010904//EN"
 "http://www.w3.org/TR/2001/REC-SVG-20010904/DTD/svg10.dtd">
<svg version="1.0" xmlns="http://www.w3.org/2000/svg"
 width="344.000000pt" height="344.000000pt" viewBox="0 0 344.000000 344.000000"
 preserveAspectRatio="xMidYMid meet">
<metadata>
Created by potrace 1.11, written by Peter Selinger 2001-2013
</metadata>
<g transform="translate(0.000000,344.000000) scale(0.100000,-0.100000)"
fill="#000000" stroke="none">
<path d="M3380 2765 c0 -11 -12 -15 -50 -15 -38 0 -50 -4 -50 -15 0 -10 -10
-15 -30 -15 -20 0 -30 -5 -30 -15 0 -11 -12 -15 -45 -15 -33 0 -45 -4 -45 -15
0 -10 -11 -15 -35 -15 -24 0 -35 -5 -35 -15 0 -11 -12 -15 -45 -15 -33 0 -45
-4 -45 -15 0 -10 -10 -15 -30 -15 -20 0 -30 -5 -30 -15 0 -11 -12 -15 -50 -15
-43 0 -50 -3 -50 -20 0 -16 -7 -20 -30 -20 -20 0 -30 -5 -30 -15 0 -11 -12
-15 -45 -15 -33 0 -45 -4 -45 -15 0 -10 -11 -15 -35 -15 -24 0 -35 -5 -35 -15
0 -11 -12 -15 -45 -15 -33 0 -45 -4 -45 -15 0 -10 -10 -15 -30 -15 -20 0 -30
-5 -30 -15 0 -11 -12 -15 -50 -15 -38 0 -50 -4 -50 -15 0 -10 -10 -15 -30 -15
-20 0 -30 -5 -30 -15 0 -11 -12 -15 -45 -15 -38 0 -45 -3 -45 -20 0 -16 -7
-20 -30 -20 -20 0 -30 -5 -30 -15 0 -11 -12 -15 -50 -15 -38 0 -50 -4 -50 -15
0 -10 -10 -15 -30 -15 -20 0 -30 -5 -30 -15 0 -11 -12 -15 -45 -15 -33 0 -45
-4 -45 -15 0 -10 -11 -15 -35 -15 -24 0 -35 -5 -35 -15 0 -11 -12 -15 -45 -15
l-45 0 0 -1065 0 -1065 45 0 c33 0 45 4 45 15 0 10 11 15 35 15 28 0 35 4 35
20 0 17 7 20 45 20 33 0 45 4 45 15 0 10 10 15 30 15 20 0 30 5 30 15 0 11 12
15 50 15 38 0 50 4 50 15 0 10 10 15 30 15 20 0 30 5 30 15 0 11 12 15 45 15
33 0 45 4 45 15 0 10 10 15 30 15 20 0 30 5 30 15 0 11 12 15 50 15 38 0 50 4
50 15 0 10 10 15 30 15 23 0 30 4 30 20 0 17 7 20 45 20 33 0 45 4 45 15 0 10
11 15 35 15 24 0 35 5 35 15 0 11 12 15 45 15 33 0 45 4 45 15 0 10 10 15 30
15 20 0 30 5 30 15 0 11 12 15 50 15 38 0 50 4 50 15 0 10 10 15 30 15 20 0
30 5 30 15 0 11 12 15 45 15 33 0 45 4 45 15 0 10 11 15 35 15 28 0 35 4 35
20 0 17 7 20 45 20 33 0 45 4 45 15 0 10 10 15 30 15 20 0 30 5 30 15 0 11 12
15 50 15 38 0 50 4 50 15 0 10 10 15 30 15 l30 0 0 1060 0 1060 -30 0 c-20 0
-30 -5 -30 -15z m-250 -1150 c0 -10 10 -15 30 -15 20 0 30 -5 30 -15 0 -11 12
-15 45 -15 38 0 45 -3 45 -20 0 -16 7 -20 30 -20 27 0 30 -3 30 -30 0 -29 -2
-30 -45 -30 -33 0 -45 -4 -45 -15 0 -10 -10 -15 -30 -15 -20 0 -30 -5 -30 -15
0 -11 -12 -15 -50 -15 -38 0 -50 -4 -50 -15 0 -10 -10 -15 -30 -15 -20 0 -30
-5 -30 -15 0 -11 -12 -15 -45 -15 -33 0 -45 -4 -45 -15 0 -10 -10 -15 -30 -15
-23 0 -30 -4 -30 -20 0 -17 -7 -20 -50 -20 -38 0 -50 -4 -50 -15 0 -10 -10
-15 -30 -15 -20 0 -30 -5 -30 -15 0 -11 -12 -15 -45 -15 -33 0 -45 -4 -45 -15
0 -10 -11 -15 -35 -15 -24 0 -35 -5 -35 -15 0 -11 -12 -15 -45 -15 -33 0 -45
-4 -45 -15 0 -10 -10 -15 -30 -15 l-30 0 0 140 0 140 30 0 c20 0 30 5 30 15 0
11 12 15 45 15 33 0 45 4 45 15 0 10 11 15 35 15 24 0 35 5 35 15 0 11 12 15
45 15 33 0 45 4 45 15 0 10 10 15 30 15 23 0 30 4 30 20 0 17 7 20 50 20 38 0
50 4 50 15 0 10 10 15 30 15 20 0 30 5 30 15 0 12 17 15 95 15 78 0 95 -3 95
-15z"/>
<path d="M690 1850 l0 -530 30 0 c20 0 30 5 30 15 0 11 12 15 45 15 33 0 45 4
45 15 0 10 11 15 35 15 24 0 35 5 35 15 0 12 17 15 90 15 73 0 90 -3 90 -15 0
-10 11 -15 35 -15 24 0 35 -5 35 -15 0 -11 12 -15 45 -15 33 0 45 -4 45 -15 0
-10 10 -15 30 -15 l30 0 0 265 0 265 35 0 c24 0 35 -5 35 -15 0 -10 10 -15 30
-15 23 0 30 -4 30 -20 0 -17 7 -20 45 -20 33 0 45 -4 45 -15 0 -10 10 -15 30
-15 20 0 30 -5 30 -15 0 -8 9 -15 20 -15 19 0 20 7 20 140 0 133 -1 140 -20
140 -11 0 -20 7 -20 15 0 10 -10 15 -30 15 -23 0 -30 4 -30 20 0 17 -7 20 -45
20 -33 0 -45 4 -45 15 0 10 -10 15 -30 15 -20 0 -30 5 -30 15 0 11 -12 15 -50
15 -38 0 -50 4 -50 15 0 10 -10 15 -30 15 -20 0 -30 5 -30 15 0 11 -12 15 -45
15 -33 0 -45 4 -45 15 0 10 -11 15 -35 15 -24 0 -35 5 -35 15 0 11 -12 15 -45
15 -33 0 -45 4 -45 15 0 10 -10 15 -30 15 -23 0 -30 4 -30 20 0 17 -7 20 -50
20 -38 0 -50 4 -50 15 0 10 -10 15 -30 15 -20 0 -30 5 -30 15 0 10 -10 15 -30
15 l-30 0 0 -530z"/>
</g>
</svg>
